<svg width="210" height="200" viewBox="0 0 210 200" fill="none" xmlns="http://www.w3.org/2000/svg">
<path d="M71.9402 34.3043L75.8791 31.6216L75.0926 28.5654L76.3711 27.6947L79.1841 39.5414L78.0993 40.2802L68.0995 33.3282L69.3715 32.4618L71.9402 34.3043ZM76.1994 32.8969L73.0031 35.0738L77.5994 38.3805L76.1994 32.8969Z" fill="#41444E"/>
<path d="M53.2605 56.5587C53.4127 56.3974 53.56 56.2109 53.7023 55.999C54.2307 55.212 54.2542 54.453 53.7727 53.7219L48.7915 50.3771L49.5972 49.1772L56.615 53.8896L55.831 55.057L55.0072 54.5321C55.37 55.3466 55.3089 56.1149 54.824 56.837C54.6673 57.0705 54.5179 57.2274 54.3761 57.3078L53.2605 56.5587Z" fill="#41444E"/>
<path d="M38.5061 70.9804C38.3845 71.4815 38.4302 71.9561 38.643 72.4044C38.8558 72.8526 39.185 73.1523 39.6307 73.3033L39.3083 74.6319C38.8438 74.4924 38.4351 74.2217 38.0824 73.8199C37.7297 73.4181 37.4876 72.936 37.3561 72.3735C37.2234 71.8161 37.2246 71.259 37.3597 70.7022C37.6311 69.5836 38.2193 68.7831 39.1242 68.3006C40.033 67.8244 41.1352 67.7434 42.431 68.0579L42.6663 68.115C43.466 68.309 44.1415 68.6283 44.6929 69.073C45.2442 69.5176 45.6256 70.055 45.8372 70.6851C46.0475 71.3204 46.0618 72.0125 45.88 72.7616C45.6565 73.6828 45.1952 74.3801 44.4961 74.8536C43.7958 75.3322 43.0004 75.4849 42.1099 75.3117L42.4322 73.9831C42.9735 74.0715 43.4579 73.9747 43.8855 73.6925C44.3169 73.4167 44.597 73.013 44.726 72.4816C44.8991 71.7679 44.7755 71.1511 44.355 70.631C43.9384 70.1172 43.2442 69.7424 42.2724 69.5066L42.0066 69.4421C41.0601 69.2125 40.284 69.2305 39.6782 69.4962C39.0725 69.7619 38.6818 70.2566 38.5061 70.9804Z" fill="#41444E"/>
<path d="M40.6812 95.509C41.5585 96.0182 42.0776 96.7795 42.2387 97.7928C42.5192 99.5571 41.6653 100.605 39.6771 100.937L34.1604 101.814L33.9335 100.387L39.4579 99.5084C40.0589 99.4076 40.4818 99.198 40.7265 98.8796C40.972 98.5664 41.0494 98.1242 40.9587 97.5533C40.8851 97.0904 40.697 96.7036 40.3945 96.3931C40.092 96.0826 39.7247 95.8615 39.2924 95.7298L33.3436 96.6754L33.1167 95.248L44.9679 93.3641L45.1948 94.7915L40.6812 95.509Z" fill="#41444E"/>
<path d="M40.8681 125.2L40.1972 123.92L47.6847 119.997L48.3555 121.277L40.8681 125.2ZM49.6163 118.852C49.8239 118.743 50.0319 118.714 50.2401 118.763C50.4509 118.818 50.6215 118.969 50.752 119.218C50.8825 119.468 50.9102 119.694 50.8348 119.898C50.7595 120.102 50.618 120.259 50.4104 120.368C50.2028 120.476 49.996 120.502 49.7899 120.446C49.5838 120.389 49.4155 120.236 49.285 119.987C49.1544 119.738 49.1245 119.513 49.1952 119.311C49.2684 119.114 49.4087 118.961 49.6163 118.852Z" fill="#41444E"/>
<path d="M58.1118 133.049L56.6356 134.467L57.7289 135.605L56.9232 136.379L55.83 135.241L52.0494 138.873C51.8053 139.107 51.6699 139.335 51.6434 139.555C51.6206 139.772 51.7265 140.003 51.961 140.247C52.0765 140.367 52.2578 140.511 52.5049 140.678L51.6598 141.49C51.3212 141.287 51.0275 141.057 50.7786 140.798C50.3311 140.332 50.1346 139.845 50.1891 139.338C50.2435 138.831 50.5298 138.328 51.0482 137.83L54.8287 134.199L53.7625 133.089L54.5682 132.315L55.6344 133.425L57.1106 132.007L58.1118 133.049Z" fill="#41444E"/>
<path d="M67.7193 155.493C66.6887 154.993 66.0139 154.248 65.6951 153.259C65.3786 152.266 65.4957 151.203 66.0465 150.069L66.1626 149.83C66.529 149.076 66.9984 148.473 67.571 148.021C68.1504 147.567 68.7786 147.299 69.4556 147.217C70.1394 147.132 70.7835 147.237 71.3879 147.53C72.3764 148.011 72.9865 148.709 73.2183 149.627C73.4501 150.544 73.2713 151.61 72.6818 152.823L72.419 153.364L67.268 150.862C66.9226 151.621 66.8457 152.333 67.0374 152.999C67.236 153.663 67.6586 154.152 68.3051 154.466C68.7642 154.69 69.1985 154.785 69.6081 154.752C70.0177 154.719 70.4171 154.607 70.8062 154.413L71.2999 155.418C70.1871 156.087 68.9936 156.112 67.7193 155.493ZM70.869 148.599C70.3443 148.344 69.8106 148.322 69.2679 148.533C68.7276 148.739 68.2479 149.167 67.8291 149.814L71.6378 151.665L71.6856 151.566C71.969 150.887 72.0391 150.29 71.8957 149.775C71.7547 149.255 71.4124 148.863 70.869 148.599Z" fill="#41444E"/>
<path d="M94.1402 163.975C94.655 164.004 95.1137 163.873 95.5161 163.583C95.9186 163.293 96.1538 162.915 96.2219 162.449L97.5869 162.526C97.5336 163.008 97.3411 163.459 97.0096 163.879C96.6781 164.298 96.2476 164.623 95.7181 164.854C95.1937 165.085 94.6456 165.185 94.0736 165.152C92.9244 165.087 92.0308 164.653 91.3929 163.85C90.7604 163.043 90.4818 161.973 90.5572 160.642L90.5708 160.4C90.6173 159.578 90.8095 158.856 91.1473 158.234C91.4851 157.611 91.9448 157.139 92.5264 156.817C93.1132 156.496 93.7914 156.357 94.561 156.4C95.5074 156.454 96.2766 156.782 96.8685 157.384C97.4656 157.986 97.7594 158.741 97.7498 159.648L96.3848 159.571C96.3741 159.023 96.1914 158.564 95.8367 158.194C95.4875 157.819 95.0399 157.617 94.4939 157.586C93.7607 157.544 93.1763 157.777 92.7407 158.285C92.3106 158.787 92.0673 159.538 92.0108 160.536L91.9953 160.809C91.9403 161.782 92.0981 162.542 92.4688 163.09C92.8395 163.638 93.3966 163.932 94.1402 163.975Z" fill="#41444E"/>
<path d="M118.433 153.69L119.031 155.647L120.541 155.186L120.867 156.254L119.358 156.716L120.891 161.729C120.99 162.052 121.132 162.276 121.317 162.399C121.5 162.517 121.753 162.527 122.077 162.428C122.237 162.379 122.447 162.282 122.707 162.137L123.05 163.258C122.717 163.469 122.378 163.627 122.035 163.732C121.417 163.921 120.894 163.876 120.466 163.599C120.038 163.321 119.719 162.839 119.509 162.151L117.976 157.138L116.504 157.588L116.178 156.52L117.649 156.07L117.051 154.113L118.433 153.69Z" fill="#41444E"/>
<path d="M148.164 137.29L149.718 138.623L150.745 137.424L151.594 138.152L150.566 139.35L154.546 142.762C154.803 142.982 155.043 143.095 155.265 143.1C155.483 143.102 155.702 142.974 155.922 142.717C156.031 142.591 156.156 142.396 156.298 142.134L157.188 142.897C157.02 143.253 156.819 143.568 156.585 143.841C156.164 144.331 155.699 144.574 155.189 144.569C154.679 144.563 154.151 144.327 153.605 143.859L149.626 140.447L148.624 141.615L147.776 140.888L148.777 139.72L147.224 138.387L148.164 137.29Z" fill="#41444E"/>
<path d="M161.746 124.854C161.232 123.98 161.153 123.061 161.51 122.1C162.132 120.425 163.39 119.931 165.285 120.618L170.522 122.562L170.019 123.917L164.775 121.97C164.202 121.763 163.73 121.738 163.361 121.895C162.993 122.047 162.709 122.395 162.508 122.937C162.344 123.376 162.318 123.805 162.43 124.224C162.541 124.643 162.752 125.016 163.064 125.343L168.711 127.44L168.208 128.795L156.958 124.618L157.461 123.263L161.746 124.854Z" fill="#41444E"/>
<path d="M176.639 98.2796C176.685 99.4245 176.348 100.371 175.628 101.119C174.902 101.868 173.909 102.268 172.65 102.318L172.384 102.329C171.547 102.363 170.793 102.234 170.125 101.943C169.451 101.647 168.918 101.22 168.525 100.662C168.127 100.1 167.915 99.4827 167.888 98.8114C167.844 97.7133 168.171 96.8453 168.87 96.2073C169.569 95.5694 170.592 95.2233 171.94 95.169L172.541 95.1449L172.771 100.867C173.603 100.812 174.267 100.543 174.764 100.059C175.255 99.5706 175.486 98.9671 175.457 98.2489C175.437 97.7389 175.315 97.3111 175.093 96.9656C174.871 96.6201 174.582 96.3216 174.228 96.07L174.88 95.1603C175.996 95.8243 176.582 96.864 176.639 98.2796ZM169.074 98.7637C169.098 99.3465 169.331 99.8272 169.774 100.205C170.211 100.584 170.814 100.805 171.583 100.868L171.413 96.6367L171.303 96.6411C170.571 96.7123 170.012 96.9329 169.626 97.3029C169.234 97.6731 169.05 98.16 169.074 98.7637Z" fill="#41444E"/>
<path d="M167.772 77.517L168.566 77.0167C167.625 76.8418 166.893 76.298 166.37 75.3853C165.781 74.3597 165.774 73.4362 166.348 72.6149C165.856 72.573 165.39 72.42 164.95 72.1558C164.508 71.8871 164.134 71.4862 163.828 70.953C162.906 69.3446 163.288 68.0384 164.976 67.0345L169.889 64.2168L170.608 65.4706L165.77 68.2455C165.245 68.5461 164.923 68.8899 164.803 69.2771C164.678 69.6668 164.778 70.144 165.102 70.7088C165.369 71.1742 165.73 71.4802 166.187 71.6268C166.638 71.7759 167.113 71.7406 167.612 71.5209L172.478 68.7304L173.201 69.991L168.396 72.7465C167.329 73.3579 167.096 74.1855 167.694 75.2292C168.166 76.0515 168.838 76.4132 169.712 76.3143L175.066 73.244L175.785 74.4978L168.452 78.703L167.772 77.517Z" fill="#41444E"/>
<path d="M149.318 37.9063C150.283 38.5242 150.866 39.3428 151.067 40.3621C151.265 41.3857 151.024 42.4282 150.344 43.4895L150.201 43.7132C149.749 44.4194 149.212 44.9631 148.59 45.3443C147.962 45.7272 147.306 45.9198 146.624 45.9222C145.935 45.9262 145.308 45.747 144.742 45.3846C143.817 44.7919 143.293 44.0264 143.17 43.0881C143.047 42.1498 143.35 41.1127 144.077 39.9768L144.402 39.4702L149.224 42.5587C149.656 41.8457 149.816 41.1472 149.703 40.4629C149.584 39.7803 149.222 39.2452 148.616 38.8575C148.187 38.5822 147.766 38.4368 147.356 38.4212C146.945 38.4057 146.535 38.471 146.126 38.6172L145.754 37.5621C146.937 37.0275 148.125 37.1422 149.318 37.9063ZM145.383 44.3847C145.874 44.6993 146.401 44.7835 146.965 44.6373C147.526 44.4956 148.052 44.1276 148.544 43.5334L144.978 41.2497L144.919 41.3418C144.558 41.9827 144.419 42.5675 144.501 43.0962C144.58 43.6293 144.874 44.0588 145.383 44.3847Z" fill="#41444E"/>
</svg>
